# xmcd CD database file
#
# Track frame offsets:
#	150
#	17615
#	45243
#	92563
#	129170
#	166449
#	200368
#	226313
#	250573
#	269193
#	290518
#
# Disc length: 4411 seconds
#
# Revision: 0
# Processed by: cddbd v1.5.2PL0 Copyright (c) Steve Scherf et al.
# Submitted via: CDex 1.51
#
DISCID=8b11390b
DTITLE=DIE DR3I - 05 - Das Haus der 1.000 Rätsel
DYEAR=2007
DGENRE=Kinderhörspiel
TTITLE0=Ein Star braucht Hilfe
TTITLE1=Gürtel, Karte, Taste
TTITLE2=Die Fährte nach Markokko
TTITLE3=Eine legentäre Bar
TTITLE4=Der rätselhafte Drink
TTITLE5=Salon Moskva
TTITLE6=Mademoiselle Nadine
TTITLE7=Bobs Frisuren-Trauma
TTITLE8=Smith and Wesson weisen den Weg
TTITLE9=Showdown in der Finsternis
TTITLE10=Lektion für den Meisterdetektiv BWS
EXTD=YEAR: 2007
EXTT0=
EXTT1=
EXTT2=
EXTT3=
EXTT4=
EXTT5=
EXTT6=
EXTT7=
EXTT8=
EXTT9=
EXTT10=
PLAYORDER=
